<svg width="1400" height="1060" viewBox="0 0 1400 1060" fill="none" xmlns="http://www.w3.org/2000/svg">
  <rect width="1400" height="1060" rx="56" fill="url(#paint0_linear)"/>
  <circle cx="1122" cy="158" r="190" fill="#F1D7A7" fill-opacity="0.55"/>
  <circle cx="228" cy="196" r="126" fill="#B85C38" fill-opacity="0.18"/>
  <circle cx="1092" cy="862" r="230" fill="#7F3A24" fill-opacity="0.14"/>
  <path d="M268 760C397 646 560 587 698 587C846 587 980 651 1128 760V890H268V760Z" fill="#F6E8CE" stroke="#D5B88B" stroke-width="10"/>
  <path d="M392 760C468 683 579 639 697 639C830 639 919 682 1008 760V890H392V760Z" fill="#FFF7E7" stroke="#E0C89A" stroke-width="8"/>
  <path d="M505 760C548 715 616 691 697 691C781 691 843 715 893 760V890H505V760Z" fill="#B85C38" fill-opacity="0.12" stroke="#CDA76B" stroke-width="8"/>
  <rect x="614" y="456" width="166" height="406" rx="22" fill="#7F3A24" fill-opacity="0.14" stroke="#8E6040" stroke-width="8"/>
  <path d="M580 448H818L804 404H594L580 448Z" fill="#D7A95A"/>
  <path d="M597 403H801L773 351H625L597 403Z" fill="#B85C38"/>
  <path d="M627 352H771L740 284H659L627 352Z" fill="#F4D6A3"/>
  <path d="M679 284L700 214L721 284H679Z" fill="#7F3A24"/>
  <circle cx="700" cy="616" r="56" fill="#D7A95A" fill-opacity="0.6"/>
  <circle cx="700" cy="616" r="28" fill="#FFF6E7" stroke="#D7A95A" stroke-width="8"/>
  <path d="M180 808C250 772 315 751 370 741" stroke="#A15B2F" stroke-width="12" stroke-linecap="round"/>
  <path d="M1120 808C1050 772 985 751 930 741" stroke="#A15B2F" stroke-width="12" stroke-linecap="round"/>
  <path d="M310 330C430 280 517 268 600 269" stroke="#FFF4DC" stroke-width="16" stroke-linecap="round" stroke-dasharray="0 38"/>
  <path d="M1090 314C972 277 884 266 800 267" stroke="#FFF4DC" stroke-width="16" stroke-linecap="round" stroke-dasharray="0 38"/>
  <defs>
    <linearGradient id="paint0_linear" x1="0" y1="0" x2="1400" y2="1060" gradientUnits="userSpaceOnUse">
      <stop stop-color="#FBF4E8"/>
      <stop offset="0.54" stop-color="#F5E3C1"/>
      <stop offset="1" stop-color="#E9C89C"/>
    </linearGradient>
  </defs>
</svg>
