<svg width="1200" height="900" viewBox="0 0 1200 900" fill="none" xmlns="http://www.w3.org/2000/svg">
  <rect width="1200" height="900" rx="48" fill="url(#paint0_linear)"/>
  <path d="M261 585C261 466 353 380 472 380H728C847 380 939 466 939 585C939 704 847 790 728 790H472C353 790 261 704 261 585Z" fill="#FFF8F0" stroke="#D9C19A" stroke-width="10"/>
  <path d="M339 566C339 484 395 428 477 428H723C805 428 861 484 861 566C861 648 805 704 723 704H477C395 704 339 648 339 566Z" fill="#F2DDB6" stroke="#CBA56B" stroke-width="8"/>
  <circle cx="600" cy="566" r="84" fill="#D7A95A" fill-opacity="0.85"/>
  <circle cx="600" cy="566" r="46" fill="#FFF8EE" stroke="#B85C38" stroke-width="8"/>
  <path d="M408 352C444 320 496 304 600 304C704 304 756 320 792 352" stroke="#B85C38" stroke-width="18" stroke-linecap="round"/>
  <path d="M444 308C494 270 544 252 600 252C656 252 706 270 756 308" stroke="#FFF3D5" stroke-width="16" stroke-linecap="round"/>
  <defs>
    <linearGradient id="paint0_linear" x1="0" y1="0" x2="1200" y2="900" gradientUnits="userSpaceOnUse">
      <stop stop-color="#FFF6E8"/>
      <stop offset="1" stop-color="#EBC793"/>
    </linearGradient>
  </defs>
</svg>
